<mxfile host="app.diagrams.net" modified="2021-05-08T03:48:02.711Z" agent="5.0 (Windows NT 10.0; Win64; x64) AppleWebKit/537.36 (KHTML, like Gecko) Chrome/92.0.4492.0 Safari/537.36 Edg/92.0.881.0" etag="pgVhRAjsVfw5mSN4P57o" version="14.6.10" type="github">
  <diagram id="wFE0QG_FPsp0jaGvCLVb" name="Page-1">
    <mxGraphModel dx="1822" dy="794" grid="1" gridSize="10" guides="1" tooltips="1" connect="1" arrows="1" fold="1" page="0" pageScale="1" pageWidth="850" pageHeight="1100" math="0" shadow="0">
      <root>
        <mxCell id="0" />
        <mxCell id="1" parent="0" />
        <mxCell id="yn--MAGcJ2VL24peUoGt-65" value="" style="edgeStyle=none;rounded=0;jumpStyle=sharp;orthogonalLoop=1;jettySize=auto;html=1;fontSize=15;startArrow=none;startFill=0;endArrow=classic;endFill=1;" parent="1" source="yn--MAGcJ2VL24peUoGt-6" edge="1">
          <mxGeometry relative="1" as="geometry">
            <mxPoint x="560" y="139" as="targetPoint" />
          </mxGeometry>
        </mxCell>
        <mxCell id="yn--MAGcJ2VL24peUoGt-66" value="" style="edgeStyle=none;rounded=0;jumpStyle=sharp;orthogonalLoop=1;jettySize=auto;html=1;fontSize=15;startArrow=none;startFill=0;endArrow=classic;endFill=1;entryX=0.413;entryY=0.05;entryDx=0;entryDy=0;entryPerimeter=0;" parent="1" target="yn--MAGcJ2VL24peUoGt-24" edge="1">
          <mxGeometry relative="1" as="geometry">
            <mxPoint x="1000" y="319" as="targetPoint" />
            <mxPoint x="960" y="159" as="sourcePoint" />
            <Array as="points">
              <mxPoint x="960" y="279" />
              <mxPoint x="573" y="279" />
            </Array>
          </mxGeometry>
        </mxCell>
        <mxCell id="IE53Mco8HkDT1VGdRrch-8" value="" style="edgeStyle=orthogonalEdgeStyle;rounded=0;orthogonalLoop=1;jettySize=auto;html=1;entryX=0.898;entryY=0.008;entryDx=0;entryDy=0;entryPerimeter=0;" edge="1" parent="1" target="yn--MAGcJ2VL24peUoGt-19">
          <mxGeometry relative="1" as="geometry">
            <mxPoint x="1115" y="510" as="targetPoint" />
            <mxPoint x="1115" y="200" as="sourcePoint" />
          </mxGeometry>
        </mxCell>
        <mxCell id="yn--MAGcJ2VL24peUoGt-6" value="好餐谋V11门店ERP系统" style="swimlane;fontSize=15;" parent="1" vertex="1">
          <mxGeometry x="720" y="39" width="560" height="200" as="geometry">
            <mxRectangle width="160" height="23" as="alternateBounds" />
          </mxGeometry>
        </mxCell>
        <mxCell id="yn--MAGcJ2VL24peUoGt-11" value="前台收银" style="swimlane;fontSize=15;" parent="yn--MAGcJ2VL24peUoGt-6" vertex="1">
          <mxGeometry x="200" y="42.5" width="350" height="115" as="geometry">
            <mxRectangle x="200" y="42.5" width="90" height="23" as="alternateBounds" />
          </mxGeometry>
        </mxCell>
        <mxCell id="yn--MAGcJ2VL24peUoGt-12" value="TCP客户端" style="whiteSpace=wrap;html=1;fontSize=15;" parent="yn--MAGcJ2VL24peUoGt-11" vertex="1">
          <mxGeometry x="4" y="38.5" width="90" height="38" as="geometry" />
        </mxCell>
        <mxCell id="yn--MAGcJ2VL24peUoGt-13" value="WCF客户端" style="whiteSpace=wrap;html=1;fontSize=15;" parent="yn--MAGcJ2VL24peUoGt-11" vertex="1">
          <mxGeometry x="120" y="38.5" width="90" height="38" as="geometry" />
        </mxCell>
        <mxCell id="yn--MAGcJ2VL24peUoGt-14" value="Job服务" style="whiteSpace=wrap;html=1;" parent="yn--MAGcJ2VL24peUoGt-11" vertex="1">
          <mxGeometry x="242" y="39" width="90" height="38" as="geometry" />
        </mxCell>
        <mxCell id="yn--MAGcJ2VL24peUoGt-15" value="主机服务" style="swimlane;fontSize=15;" parent="yn--MAGcJ2VL24peUoGt-6" vertex="1">
          <mxGeometry x="10" y="42.5" width="130" height="115" as="geometry">
            <mxRectangle x="10" y="42.5" width="90" height="23" as="alternateBounds" />
          </mxGeometry>
        </mxCell>
        <mxCell id="yn--MAGcJ2VL24peUoGt-16" value="Job服务" style="rounded=0;whiteSpace=wrap;html=1;fontSize=15;" parent="yn--MAGcJ2VL24peUoGt-15" vertex="1">
          <mxGeometry x="10" y="38.5" width="90" height="38" as="geometry" />
        </mxCell>
        <mxCell id="yn--MAGcJ2VL24peUoGt-7" value="好餐谋V11总部系统" style="swimlane;" parent="1" vertex="1">
          <mxGeometry x="280" y="39" width="320" height="200" as="geometry" />
        </mxCell>
        <mxCell id="yn--MAGcJ2VL24peUoGt-17" value="后台管理" style="whiteSpace=wrap;html=1;fontSize=15;" parent="yn--MAGcJ2VL24peUoGt-7" vertex="1">
          <mxGeometry x="25" y="55" width="110" height="90" as="geometry" />
        </mxCell>
        <mxCell id="yn--MAGcJ2VL24peUoGt-18" value="API" style="whiteSpace=wrap;html=1;fontSize=15;" parent="yn--MAGcJ2VL24peUoGt-7" vertex="1">
          <mxGeometry x="169" y="55" width="110" height="90" as="geometry" />
        </mxCell>
        <mxCell id="yn--MAGcJ2VL24peUoGt-8" value="餐饮微平台系统" style="swimlane;" parent="1" vertex="1">
          <mxGeometry x="-80" y="319" width="1720" height="360" as="geometry" />
        </mxCell>
        <mxCell id="yn--MAGcJ2VL24peUoGt-19" value="API" style="swimlane;fontSize=15;" parent="yn--MAGcJ2VL24peUoGt-8" vertex="1">
          <mxGeometry x="800" y="200" width="440" height="120" as="geometry" />
        </mxCell>
        <mxCell id="yn--MAGcJ2VL24peUoGt-20" value="基础API" style="rounded=0;whiteSpace=wrap;html=1;fontSize=15;" parent="yn--MAGcJ2VL24peUoGt-19" vertex="1">
          <mxGeometry x="6" y="40" width="80" height="40" as="geometry" />
        </mxCell>
        <mxCell id="yn--MAGcJ2VL24peUoGt-21" value="餐饮API" style="rounded=0;whiteSpace=wrap;html=1;fontSize=15;" parent="yn--MAGcJ2VL24peUoGt-19" vertex="1">
          <mxGeometry x="116" y="40" width="80" height="40" as="geometry" />
        </mxCell>
        <mxCell id="yn--MAGcJ2VL24peUoGt-22" value="同步API" style="rounded=0;whiteSpace=wrap;html=1;fontSize=15;" parent="yn--MAGcJ2VL24peUoGt-19" vertex="1">
          <mxGeometry x="236" y="40" width="80" height="40" as="geometry" />
        </mxCell>
        <mxCell id="yn--MAGcJ2VL24peUoGt-23" value="营销API" style="rounded=0;whiteSpace=wrap;html=1;fontSize=15;" parent="yn--MAGcJ2VL24peUoGt-19" vertex="1">
          <mxGeometry x="346" y="40" width="80" height="40" as="geometry" />
        </mxCell>
        <mxCell id="yn--MAGcJ2VL24peUoGt-29" value="Windows服务" style="swimlane;fontSize=15;" parent="yn--MAGcJ2VL24peUoGt-8" vertex="1">
          <mxGeometry x="40" y="40" width="680" height="120" as="geometry" />
        </mxCell>
        <mxCell id="yn--MAGcJ2VL24peUoGt-24" value="TCP服务端" style="rounded=0;whiteSpace=wrap;html=1;fontSize=15;" parent="yn--MAGcJ2VL24peUoGt-29" vertex="1">
          <mxGeometry x="580" y="40" width="80" height="40" as="geometry" />
        </mxCell>
        <mxCell id="yn--MAGcJ2VL24peUoGt-25" value="Job服务" style="rounded=0;whiteSpace=wrap;html=1;fontSize=15;" parent="yn--MAGcJ2VL24peUoGt-29" vertex="1">
          <mxGeometry x="180" y="40" width="80" height="40" as="geometry" />
        </mxCell>
        <mxCell id="yn--MAGcJ2VL24peUoGt-26" value="数据汇总服务" style="rounded=0;whiteSpace=wrap;html=1;fontSize=15;" parent="yn--MAGcJ2VL24peUoGt-29" vertex="1">
          <mxGeometry x="300" y="40" width="100" height="40" as="geometry" />
        </mxCell>
        <mxCell id="yn--MAGcJ2VL24peUoGt-27" value="MQ出列服务" style="rounded=0;whiteSpace=wrap;html=1;fontSize=15;" parent="yn--MAGcJ2VL24peUoGt-29" vertex="1">
          <mxGeometry x="450" y="40" width="90" height="40" as="geometry" />
        </mxCell>
        <mxCell id="yn--MAGcJ2VL24peUoGt-28" value="RocketMQ出列服务" style="rounded=0;whiteSpace=wrap;html=1;fontSize=15;" parent="yn--MAGcJ2VL24peUoGt-29" vertex="1">
          <mxGeometry x="10" y="40" width="150" height="40" as="geometry" />
        </mxCell>
        <mxCell id="yn--MAGcJ2VL24peUoGt-30" value="WCF服务端" style="rounded=0;whiteSpace=wrap;html=1;fontSize=15;" parent="yn--MAGcJ2VL24peUoGt-8" vertex="1">
          <mxGeometry x="1240" y="80" width="120" height="40" as="geometry" />
        </mxCell>
        <mxCell id="yn--MAGcJ2VL24peUoGt-34" value="后台管理" style="rounded=0;whiteSpace=wrap;html=1;fontSize=15;" parent="yn--MAGcJ2VL24peUoGt-8" vertex="1">
          <mxGeometry x="1430" y="80.5" width="90" height="40" as="geometry" />
        </mxCell>
        <mxCell id="yn--MAGcJ2VL24peUoGt-59" value="" style="edgeStyle=none;rounded=0;jumpStyle=sharp;orthogonalLoop=1;jettySize=auto;html=1;fontSize=15;startArrow=none;startFill=0;endArrow=classic;endFill=1;" parent="yn--MAGcJ2VL24peUoGt-8" source="yn--MAGcJ2VL24peUoGt-35" edge="1">
          <mxGeometry relative="1" as="geometry">
            <mxPoint x="800" y="260" as="targetPoint" />
          </mxGeometry>
        </mxCell>
        <mxCell id="yn--MAGcJ2VL24peUoGt-60" value="" style="edgeStyle=none;rounded=0;jumpStyle=sharp;orthogonalLoop=1;jettySize=auto;html=1;fontSize=15;startArrow=none;startFill=0;endArrow=classic;endFill=1;" parent="yn--MAGcJ2VL24peUoGt-8" source="yn--MAGcJ2VL24peUoGt-35" edge="1">
          <mxGeometry relative="1" as="geometry">
            <mxPoint x="200" y="260" as="targetPoint" />
          </mxGeometry>
        </mxCell>
        <mxCell id="yn--MAGcJ2VL24peUoGt-35" value="前端" style="swimlane;fontSize=15;" parent="yn--MAGcJ2VL24peUoGt-8" vertex="1">
          <mxGeometry x="280" y="200" width="440" height="120" as="geometry" />
        </mxCell>
        <mxCell id="yn--MAGcJ2VL24peUoGt-37" value="餐饮H5" style="rounded=0;whiteSpace=wrap;html=1;fontSize=15;" parent="yn--MAGcJ2VL24peUoGt-35" vertex="1">
          <mxGeometry x="40" y="40" width="80" height="40" as="geometry" />
        </mxCell>
        <mxCell id="yn--MAGcJ2VL24peUoGt-45" value="" style="edgeStyle=none;rounded=0;jumpStyle=sharp;orthogonalLoop=1;jettySize=auto;html=1;fontSize=15;startArrow=none;startFill=0;endArrow=classic;endFill=1;" parent="yn--MAGcJ2VL24peUoGt-35" source="yn--MAGcJ2VL24peUoGt-38" edge="1">
          <mxGeometry relative="1" as="geometry">
            <mxPoint x="120" y="61" as="targetPoint" />
          </mxGeometry>
        </mxCell>
        <mxCell id="yn--MAGcJ2VL24peUoGt-38" value="微信小程序" style="rounded=0;whiteSpace=wrap;html=1;fontSize=15;aspect=fixed;" parent="yn--MAGcJ2VL24peUoGt-35" vertex="1">
          <mxGeometry x="200" y="41" width="80" height="40" as="geometry" />
        </mxCell>
        <mxCell id="yn--MAGcJ2VL24peUoGt-47" value="抽奖H5" style="rounded=0;whiteSpace=wrap;html=1;fontSize=15;" parent="yn--MAGcJ2VL24peUoGt-35" vertex="1">
          <mxGeometry x="327" y="41" width="80" height="40" as="geometry" />
        </mxCell>
        <mxCell id="yn--MAGcJ2VL24peUoGt-54" value="SignalR" style="rounded=0;whiteSpace=wrap;html=1;fontSize=15;" parent="yn--MAGcJ2VL24peUoGt-8" vertex="1">
          <mxGeometry x="110" y="240" width="90" height="40" as="geometry" />
        </mxCell>
        <mxCell id="yn--MAGcJ2VL24peUoGt-57" value="微信消息处理" style="rounded=0;whiteSpace=wrap;html=1;fontSize=15;" parent="yn--MAGcJ2VL24peUoGt-8" vertex="1">
          <mxGeometry x="1560" y="80.5" width="120" height="40" as="geometry" />
        </mxCell>
        <mxCell id="IE53Mco8HkDT1VGdRrch-7" value="" style="edgeStyle=orthogonalEdgeStyle;rounded=0;orthogonalLoop=1;jettySize=auto;html=1;" edge="1" parent="yn--MAGcJ2VL24peUoGt-8" source="IE53Mco8HkDT1VGdRrch-1">
          <mxGeometry relative="1" as="geometry">
            <mxPoint x="980" y="201" as="targetPoint" />
          </mxGeometry>
        </mxCell>
        <mxCell id="IE53Mco8HkDT1VGdRrch-1" value="微平台助手" style="swimlane;" vertex="1" parent="yn--MAGcJ2VL24peUoGt-8">
          <mxGeometry x="800" y="40" width="360" height="119" as="geometry" />
        </mxCell>
        <mxCell id="IE53Mco8HkDT1VGdRrch-2" value="TCP客户端" style="whiteSpace=wrap;html=1;fontSize=15;" vertex="1" parent="IE53Mco8HkDT1VGdRrch-1">
          <mxGeometry x="10" y="41.5" width="90" height="38" as="geometry" />
        </mxCell>
        <mxCell id="IE53Mco8HkDT1VGdRrch-3" value="WCF客户端" style="whiteSpace=wrap;html=1;fontSize=15;" vertex="1" parent="IE53Mco8HkDT1VGdRrch-1">
          <mxGeometry x="250" y="40.5" width="90" height="38" as="geometry" />
        </mxCell>
        <mxCell id="IE53Mco8HkDT1VGdRrch-4" value="Job服务" style="whiteSpace=wrap;html=1;" vertex="1" parent="IE53Mco8HkDT1VGdRrch-1">
          <mxGeometry x="130" y="41.5" width="90" height="38" as="geometry" />
        </mxCell>
        <mxCell id="IE53Mco8HkDT1VGdRrch-5" value="" style="edgeStyle=orthogonalEdgeStyle;rounded=0;orthogonalLoop=1;jettySize=auto;html=1;entryX=1;entryY=0.5;entryDx=0;entryDy=0;" edge="1" parent="yn--MAGcJ2VL24peUoGt-8" source="IE53Mco8HkDT1VGdRrch-2" target="yn--MAGcJ2VL24peUoGt-24">
          <mxGeometry relative="1" as="geometry">
            <mxPoint x="730" y="100.5" as="targetPoint" />
          </mxGeometry>
        </mxCell>
        <mxCell id="IE53Mco8HkDT1VGdRrch-6" value="" style="edgeStyle=orthogonalEdgeStyle;rounded=0;orthogonalLoop=1;jettySize=auto;html=1;entryX=0;entryY=0.5;entryDx=0;entryDy=0;" edge="1" parent="yn--MAGcJ2VL24peUoGt-8" source="IE53Mco8HkDT1VGdRrch-3" target="yn--MAGcJ2VL24peUoGt-30">
          <mxGeometry relative="1" as="geometry">
            <mxPoint x="1230" y="100" as="targetPoint" />
          </mxGeometry>
        </mxCell>
      </root>
    </mxGraphModel>
  </diagram>
</mxfile>
